<svg xmlns="http://www.w3.org/2000/svg" xmlns:xlink="http://www.w3.org/1999/xlink" width="1000" zoomAndPan="magnify" viewBox="0 0 375 374.999991" height="1000" preserveAspectRatio="xMidYMid meet" version="1.0"><defs><clipPath id="id1"><path d="M 54.386719 111.460938 L 151 111.460938 L 151 263.207031 L 54.386719 263.207031 Z M 54.386719 111.460938 " clip-rule="nonzero"/></clipPath><clipPath id="id2"><path d="M 224 111.460938 L 320.613281 111.460938 L 320.613281 263.207031 L 224 263.207031 Z M 224 111.460938 " clip-rule="nonzero"/></clipPath><clipPath id="id3"><path d="M 125 123.859375 L 250 123.859375 L 250 251.648438 L 125 251.648438 Z M 125 123.859375 " clip-rule="nonzero"/></clipPath></defs><g clip-path="url(#id1)"><path fill="#8c52ff" d="M 130.488281 263.363281 L 54.386719 187.4375 L 130.488281 111.503906 L 150.511719 131.484375 L 94.433594 187.4375 L 150.511719 243.382812 Z M 130.488281 263.363281 " fill-opacity="1" fill-rule="nonzero"/></g><g clip-path="url(#id2)"><path fill="#8c52ff" d="M 244.917969 263.363281 L 224.894531 243.382812 L 280.960938 187.4375 L 224.894531 131.484375 L 244.917969 111.503906 L 321.007812 187.4375 Z M 244.917969 263.363281 " fill-opacity="1" fill-rule="nonzero"/></g><g clip-path="url(#id3)"><path fill="#8c52ff" d="M 193.160156 251.648438 C 216.652344 251.648438 235.535156 243.210938 247.8125 227.183594 L 249.800781 224.558594 L 219.917969 197.894531 L 217.578125 200.875 C 211.046875 209.171875 203.878906 213.070312 195.148438 213.070312 C 180.878906 213.070312 171.652344 203.144531 171.652344 187.753906 C 171.652344 172.367188 180.878906 162.4375 195.148438 162.4375 C 203.949219 162.4375 211.046875 166.339844 217.578125 174.636719 L 219.917969 177.613281 L 249.800781 150.949219 L 247.8125 148.324219 C 235.464844 132.300781 216.582031 123.859375 193.160156 123.859375 C 153.765625 123.859375 125.230469 150.738281 125.230469 187.753906 C 125.230469 224.773438 153.765625 251.648438 193.160156 251.648438 Z M 193.160156 251.648438 " fill-opacity="1" fill-rule="nonzero"/></g></svg>